<?xml version="1.0" encoding="iso-8859-1"?>
<!-- Generator: Adobe Illustrator 16.0.0, SVG Export Plug-In . SVG Version: 6.00 Build 0)  -->
<!DOCTYPE svg PUBLIC "-//W3C//DTD SVG 1.1//EN" "http://www.w3.org/Graphics/SVG/1.1/DTD/svg11.dtd">
<svg version="1.1" xmlns="http://www.w3.org/2000/svg" xmlns:xlink="http://www.w3.org/1999/xlink" x="0px" y="0px" width="60px"
	 height="60px" viewBox="0 0 60 60" style="enable-background:new 0 0 60 60;" xml:space="preserve">
<g id="&#x56FE;&#x5C42;_1" style="display:none;">
</g>
<g id="&#x56FE;&#x5C42;_2">
	<g>
	</g>
	<path style="fill:#00B4B4;" d="M47,12.1c-0.1-0.1-0.3-0.3-0.4-0.4l-2.8-1.5C43.5,10.1,43.3,10,43,10H17c-0.2,0-0.4,0-0.6,0.1
		l-2,0.8c-0.2,0.1-0.4,0.2-0.5,0.4c-7.4,8.1-7.4,9.4-7.4,10c0,0,0,0.1,0,0.1c0,0,0,0.1,0,0.1c0,0.5,0.2,0.9,0.5,1.1
		c1.2,2.2,4.6,6.9,10,13.9C27.9,50.5,29.2,50.5,30,50.5c0.9,0,2.1,0,12.9-14.2c10.6-13.8,10.6-14.8,10.6-15.1
		C53.5,20.6,53.5,19.8,47,12.1z M44.9,14.2c1.7,2,3.5,4.3,4.6,5.8h-9.4l-5.4-7h7.9L44.9,14.2z M30,44.2L23.2,23h13.6L30,44.2z
		 M23.7,20l5.4-7h1.8l5.4,7H23.7z M15.9,13.6l1.4-0.6h8l-5.4,7h-9.4C11.7,18.3,13.9,15.8,15.9,13.6z M10.7,23h9.3l6.6,20.6
		C21.8,37.9,13.9,27.6,10.7,23z M30,47.2C30,47.2,29.9,47.2,30,47.2c0-0.1,0-0.1,0-0.1C30,47.1,30,47.2,30,47.2
		C30,47.2,30,47.2,30,47.2z M33.4,43.6L39.9,23h9.1C45.8,27.7,38.1,37.9,33.4,43.6z"/>
</g>
<g id="&#x56FE;&#x5C42;_3">
</g>
</svg>
